<svg width="55" height="13" viewBox="0 0 55 13" fill="none" xmlns="http://www.w3.org/2000/svg">
<path d="M5.54756 5.07449C5.63922 4.80637 6.02751 4.80637 6.11917 5.07449L6.65661 6.64831C6.77491 6.99428 6.97422 7.30862 7.23875 7.56642C7.50328 7.82423 7.82575 8.0184 8.18061 8.13357L9.79377 8.65763C10.0687 8.74701 10.0687 9.12563 9.79377 9.21501L8.17978 9.73907C7.82498 9.85443 7.50262 10.0488 7.23823 10.3067C6.97385 10.5647 6.77471 10.8791 6.65661 11.2251L6.11917 12.7982C6.09941 12.8569 6.06113 12.908 6.00981 12.9442C5.95849 12.9805 5.89673 13 5.83336 13C5.76999 13 5.70824 12.9805 5.65692 12.9442C5.60559 12.908 5.56732 12.8569 5.54756 12.7982L5.01012 11.2243C4.8919 10.8785 4.69272 10.5642 4.42834 10.3064C4.16396 10.0486 3.84166 9.85435 3.48695 9.73907L1.87295 9.21501C1.81274 9.19574 1.76031 9.15842 1.72314 9.10838C1.68597 9.05833 1.66595 8.99811 1.66595 8.93632C1.66595 8.87453 1.68597 8.81431 1.72314 8.76427C1.76031 8.71422 1.81274 8.6769 1.87295 8.65763L3.48695 8.13357C3.84166 8.0183 4.16396 7.82407 4.42834 7.56627C4.69272 7.30848 4.8919 6.99419 5.01012 6.64831L5.54756 5.07449ZM2.32874 0.931537C2.34069 0.896351 2.3637 0.865732 2.39452 0.84403C2.42533 0.822328 2.46238 0.810647 2.50039 0.810647C2.5384 0.810647 2.57544 0.822328 2.60626 0.84403C2.63707 0.865732 2.66009 0.896351 2.67204 0.931537L2.9945 1.87567C3.13865 2.29654 3.47695 2.62642 3.90857 2.76698L4.8768 3.08142C4.91288 3.09307 4.94428 3.11552 4.96654 3.14556C4.9888 3.17561 5.00078 3.21173 5.00078 3.2488C5.00078 3.28586 4.9888 3.32198 4.96654 3.35203C4.94428 3.38208 4.91288 3.40452 4.8768 3.41617L3.90857 3.73061C3.69557 3.79954 3.50202 3.91602 3.34333 4.07076C3.18464 4.2255 3.06519 4.41423 2.9945 4.62193L2.67204 5.56606C2.66009 5.60124 2.63707 5.63186 2.60626 5.65356C2.57544 5.67527 2.5384 5.68695 2.50039 5.68695C2.46238 5.68695 2.42533 5.67527 2.39452 5.65356C2.3637 5.63186 2.34069 5.60124 2.32874 5.56606L2.00627 4.62193C1.93558 4.41423 1.81614 4.2255 1.65745 4.07076C1.49875 3.91602 1.3052 3.79954 1.09221 3.73061L0.123976 3.41617C0.0878918 3.40452 0.0564909 3.38208 0.034235 3.35203C0.011979 3.32198 0 3.28586 0 3.2488C0 3.21173 0.011979 3.17561 0.034235 3.14556C0.0564909 3.11552 0.0878918 3.09307 0.123976 3.08142L1.09221 2.76698C1.3052 2.69805 1.49875 2.58158 1.65745 2.42684C1.81614 2.2721 1.93558 2.08336 2.00627 1.87567L2.32874 0.931537ZM8.21894 0.0792212C8.22717 0.0560862 8.24258 0.0360252 8.26304 0.0218273C8.2835 0.00762933 8.30798 0 8.3331 0C8.35821 0 8.38269 0.00762933 8.40315 0.0218273C8.42361 0.0360252 8.43902 0.0560862 8.44725 0.0792212L8.66223 0.708099C8.75805 0.989225 8.98386 1.20941 9.27216 1.30285L9.91709 1.51248C9.94082 1.5205 9.96139 1.53553 9.97595 1.55548C9.99051 1.57543 9.99834 1.5993 9.99834 1.62379C9.99834 1.64828 9.99051 1.67215 9.97595 1.6921C9.96139 1.71205 9.94082 1.72708 9.91709 1.7351L9.27216 1.94473C9.13021 1.99104 9.00123 2.06887 8.89538 2.17208C8.78954 2.27529 8.70972 2.40106 8.66223 2.53948L8.44725 3.16836C8.43902 3.19149 8.42361 3.21156 8.40315 3.22575C8.38269 3.23995 8.35821 3.24758 8.3331 3.24758C8.30798 3.24758 8.2835 3.23995 8.26304 3.22575C8.24258 3.21156 8.22717 3.19149 8.21894 3.16836L8.00396 2.53948C7.95647 2.40106 7.87665 2.27529 7.77081 2.17208C7.66496 2.06887 7.53598 1.99104 7.39403 1.94473L6.74993 1.7351C6.72621 1.72708 6.70563 1.71205 6.69107 1.6921C6.67651 1.67215 6.66869 1.64828 6.66869 1.62379C6.66869 1.5993 6.67651 1.57543 6.69107 1.55548C6.70563 1.53553 6.72621 1.5205 6.74993 1.51248L7.39486 1.30285C7.68316 1.20941 7.90897 0.989225 8.0048 0.708099L8.21894 0.0792212Z" fill="white" fill-opacity="0.47"/>
<path d="M19.8645 4.63778C19.8266 4.30161 19.6703 4.04119 19.3957 3.85653C19.1211 3.66951 18.7754 3.57599 18.3588 3.57599C18.0605 3.57599 17.8024 3.62334 17.5846 3.71804C17.3668 3.81037 17.1975 3.93821 17.0768 4.10156C16.9584 4.26255 16.8993 4.44602 16.8993 4.65199C16.8993 4.82481 16.9395 4.97396 17.02 5.09943C17.1029 5.22491 17.2106 5.33026 17.3431 5.41548C17.4781 5.49834 17.6225 5.56818 17.7764 5.625C17.9303 5.67945 18.0782 5.72443 18.2203 5.75994L18.9305 5.9446C19.1625 6.00142 19.4004 6.07836 19.6443 6.17543C19.8881 6.27249 20.1142 6.40033 20.3225 6.55895C20.5309 6.71757 20.699 6.91406 20.8268 7.14844C20.957 7.38281 21.0221 7.66335 21.0221 7.99006C21.0221 8.40199 20.9156 8.76776 20.7025 9.08736C20.4918 9.40696 20.1852 9.65909 19.7828 9.84375C19.3827 10.0284 18.8985 10.1207 18.3304 10.1207C17.7859 10.1207 17.3147 10.0343 16.917 9.86151C16.5193 9.68868 16.208 9.44366 15.9831 9.12642C15.7582 8.80682 15.6339 8.42803 15.6102 7.99006H16.711C16.7324 8.25284 16.8176 8.47183 16.9667 8.64702C17.1182 8.81984 17.3112 8.94886 17.5456 9.03409C17.7823 9.11695 18.0415 9.15838 18.3233 9.15838C18.6334 9.15838 18.9092 9.10985 19.1507 9.01278C19.3945 8.91335 19.5863 8.77604 19.726 8.60085C19.8656 8.4233 19.9355 8.21615 19.9355 7.9794C19.9355 7.76397 19.8739 7.58759 19.7508 7.45028C19.6301 7.31297 19.4655 7.19934 19.2572 7.10938C19.0512 7.01941 18.8181 6.9401 18.5576 6.87145L17.6983 6.63707C17.1159 6.47846 16.6542 6.24527 16.3133 5.9375C15.9748 5.62973 15.8055 5.22254 15.8055 4.71591C15.8055 4.29687 15.9191 3.93111 16.1464 3.61861C16.3737 3.30611 16.6815 3.06345 17.0697 2.89062C17.458 2.71544 17.8959 2.62784 18.3836 2.62784C18.8761 2.62784 19.3105 2.71425 19.6869 2.88707C20.0657 3.0599 20.364 3.29782 20.5818 3.60085C20.7996 3.90151 20.9132 4.24716 20.9227 4.63778H19.8645ZM22.6482 12.0455V4.54545H23.6851V5.42969H23.7739C23.8354 5.31605 23.9242 5.18466 24.0402 5.03551C24.1562 4.88636 24.3172 4.75616 24.5232 4.64489C24.7291 4.53125 25.0014 4.47443 25.3399 4.47443C25.7803 4.47443 26.1732 4.5857 26.5189 4.80824C26.8645 5.03078 27.1356 5.35156 27.3321 5.7706C27.531 6.18963 27.6304 6.69389 27.6304 7.28338C27.6304 7.87287 27.5321 8.37831 27.3357 8.79972C27.1392 9.21875 26.8693 9.5419 26.526 9.76918C26.1827 9.99408 25.7909 10.1065 25.3506 10.1065C25.0191 10.1065 24.7481 10.0509 24.5374 9.93963C24.329 9.82836 24.1657 9.69815 24.0473 9.54901C23.9289 9.39986 23.8378 9.26728 23.7739 9.15128H23.7099V12.0455H22.6482ZM23.6886 7.27273C23.6886 7.65625 23.7443 7.99242 23.8555 8.28125C23.9668 8.57008 24.1278 8.79616 24.3385 8.95952C24.5492 9.1205 24.8072 9.20099 25.1126 9.20099C25.4299 9.20099 25.695 9.11695 25.9081 8.94886C26.1212 8.77841 26.2821 8.54759 26.3911 8.25639C26.5023 7.9652 26.558 7.63731 26.558 7.27273C26.558 6.91288 26.5035 6.58973 26.3946 6.30327C26.2881 6.01681 26.1271 5.79072 25.9116 5.625C25.6986 5.45928 25.4322 5.37642 25.1126 5.37642C24.8049 5.37642 24.5445 5.45573 24.3314 5.61435C24.1207 5.77296 23.9609 5.99432 23.852 6.27841C23.7431 6.5625 23.6886 6.89394 23.6886 7.27273ZM30.8074 10.1207C30.4617 10.1207 30.1492 10.0568 29.8699 9.92898C29.5905 9.79877 29.3692 9.61056 29.2058 9.36435C29.0448 9.11813 28.9643 8.81629 28.9643 8.45881C28.9643 8.15104 29.0235 7.89773 29.1419 7.69886C29.2603 7.5 29.4201 7.34257 29.6213 7.22656C29.8225 7.11056 30.0474 7.02296 30.296 6.96378C30.5446 6.90459 30.7979 6.85961 31.056 6.82884C31.3827 6.79096 31.6478 6.76018 31.8514 6.73651C32.055 6.71046 32.203 6.66903 32.2953 6.61222C32.3876 6.5554 32.4338 6.46307 32.4338 6.33523V6.31037C32.4338 6.00024 32.3462 5.75994 32.171 5.58949C31.9982 5.41903 31.7402 5.33381 31.3969 5.33381C31.0394 5.33381 30.7577 5.41312 30.5517 5.57173C30.3481 5.72798 30.2072 5.90199 30.1291 6.09375L29.1312 5.86648C29.2496 5.53504 29.4224 5.26752 29.6497 5.06392C29.8794 4.85795 30.1433 4.70881 30.4416 4.61648C30.7399 4.52178 31.0536 4.47443 31.3827 4.47443C31.6005 4.47443 31.8313 4.50047 32.0751 4.55256C32.3214 4.60227 32.551 4.6946 32.7641 4.82955C32.9795 4.96449 33.1559 5.15743 33.2932 5.40838C33.4305 5.65696 33.4991 5.98011 33.4991 6.37784V10H32.4622V9.25426H32.4196C32.3509 9.39157 32.248 9.52652 32.1107 9.65909C31.9733 9.79167 31.797 9.90175 31.5815 9.98935C31.3661 10.0769 31.108 10.1207 30.8074 10.1207ZM31.0382 9.26847C31.3318 9.26847 31.5827 9.21046 31.7911 9.09446C32.0018 8.97846 32.1616 8.82694 32.2705 8.63991C32.3817 8.45052 32.4374 8.24811 32.4374 8.03267V7.32955C32.3995 7.36742 32.3261 7.40294 32.2172 7.43608C32.1107 7.46686 31.9887 7.49408 31.8514 7.51776C31.7141 7.53906 31.5803 7.55919 31.4501 7.57812C31.3199 7.5947 31.211 7.6089 31.1234 7.62074C30.9175 7.64678 30.7293 7.69058 30.5588 7.75213C30.3907 7.81368 30.2558 7.90246 30.154 8.01847C30.0545 8.1321 30.0048 8.28362 30.0048 8.47301C30.0048 8.7358 30.1019 8.93466 30.296 9.0696C30.4902 9.20218 30.7375 9.26847 31.0382 9.26847ZM35.3134 10V4.54545H36.3397V5.41193H36.3965C36.4959 5.11837 36.6711 4.88755 36.9221 4.71946C37.1754 4.54901 37.4618 4.46378 37.7814 4.46378C37.8477 4.46378 37.9258 4.46615 38.0158 4.47088C38.1081 4.47562 38.1803 4.48153 38.2324 4.48864V5.50426C38.1898 5.49242 38.1141 5.4794 38.0051 5.4652C37.8962 5.44863 37.7873 5.44034 37.6784 5.44034C37.4275 5.44034 37.2038 5.49361 37.0073 5.60014C36.8132 5.70431 36.6593 5.84991 36.5456 6.03693C36.432 6.22159 36.3752 6.43229 36.3752 6.66903V10H35.3134ZM40.5278 8.14986L40.5207 6.85369H40.7054L42.8787 4.54545H44.15L41.6713 7.1733H41.5044L40.5278 8.14986ZM39.5513 10V2.72727H40.6131V10H39.5513ZM42.9959 10L41.0428 7.40767L41.7743 6.66548L44.2991 10H42.9959ZM46.2173 10H45.0525L47.6697 2.72727H48.9374L51.5546 10H50.3898L48.3337 4.0483H48.2769L46.2173 10ZM46.4126 7.15199H50.191V8.07528H46.4126V7.15199ZM54.1022 2.72727V10H53.0049V2.72727H54.1022Z" fill="white" fill-opacity="0.47"/>
</svg>
