<svg width="1440" height="652" viewBox="0 0 1440 652" fill="none" xmlns="http://www.w3.org/2000/svg">
<g opacity="0.8">
<mask id="mask0_1_2006" style="mask-type:alpha" maskUnits="userSpaceOnUse" x="336" y="-116" width="768" height="768">
<rect width="768" height="768" transform="translate(336 -116)" fill="url(#paint0_radial_1_2006)"/>
</mask>
<g mask="url(#mask0_1_2006)">
<g clip-path="url(#clip0_1_2006)">
<g opacity="0.5">
<g clip-path="url(#clip1_1_2006)">
<line x1="336.3" y1="-116" x2="336.3" y2="652" stroke="white" stroke-opacity="0.58" stroke-width="0.6"/>
<line x1="384.3" y1="-116" x2="384.3" y2="652" stroke="white" stroke-opacity="0.58" stroke-width="0.6"/>
<line x1="432.3" y1="-116" x2="432.3" y2="652" stroke="white" stroke-opacity="0.58" stroke-width="0.6"/>
<line x1="480.3" y1="-116" x2="480.3" y2="652" stroke="white" stroke-opacity="0.58" stroke-width="0.6"/>
<line x1="528.3" y1="-116" x2="528.3" y2="652" stroke="white" stroke-opacity="0.58" stroke-width="0.6"/>
<line x1="576.3" y1="-116" x2="576.3" y2="652" stroke="white" stroke-opacity="0.58" stroke-width="0.6"/>
<line x1="624.3" y1="-116" x2="624.3" y2="652" stroke="white" stroke-opacity="0.58" stroke-width="0.6"/>
<line x1="672.3" y1="-116" x2="672.3" y2="652" stroke="white" stroke-opacity="0.58" stroke-width="0.6"/>
<line x1="720.3" y1="-116" x2="720.3" y2="652" stroke="white" stroke-opacity="0.58" stroke-width="0.6"/>
<line x1="768.3" y1="-116" x2="768.3" y2="652" stroke="white" stroke-opacity="0.58" stroke-width="0.6"/>
<line x1="816.3" y1="-116" x2="816.3" y2="652" stroke="white" stroke-opacity="0.58" stroke-width="0.6"/>
<line x1="864.3" y1="-116" x2="864.3" y2="652" stroke="white" stroke-opacity="0.58" stroke-width="0.6"/>
<line x1="912.3" y1="-116" x2="912.3" y2="652" stroke="white" stroke-opacity="0.58" stroke-width="0.6"/>
<line x1="960.3" y1="-116" x2="960.3" y2="652" stroke="white" stroke-opacity="0.58" stroke-width="0.6"/>
<line x1="1008.3" y1="-116" x2="1008.3" y2="652" stroke="white" stroke-opacity="0.58" stroke-width="0.6"/>
<line x1="1056.3" y1="-116" x2="1056.3" y2="652" stroke="white" stroke-opacity="0.58" stroke-width="0.6"/>
</g>
<rect x="336.5" y="-115.5" width="767" height="767" stroke="#F1C62B"/>
</g>
<g opacity="0.5">
<g clip-path="url(#clip2_1_2006)">
<line x1="336" y1="27.7" x2="1104" y2="27.7" stroke="white" stroke-opacity="0.58" stroke-width="0.6"/>
<line x1="336" y1="75.7" x2="1104" y2="75.7" stroke="white" stroke-opacity="0.58" stroke-width="0.6"/>
<line x1="336" y1="123.7" x2="1104" y2="123.7" stroke="white" stroke-opacity="0.58" stroke-width="0.6"/>
<line x1="336" y1="171.7" x2="1104" y2="171.7" stroke="white" stroke-opacity="0.58" stroke-width="0.6"/>
<line x1="336" y1="219.7" x2="1104" y2="219.7" stroke="white" stroke-opacity="0.58" stroke-width="0.6"/>
<line x1="336" y1="267.7" x2="1104" y2="267.7" stroke="white" stroke-opacity="0.58" stroke-width="0.6"/>
<line x1="336" y1="315.7" x2="1104" y2="315.7" stroke="white" stroke-opacity="0.58" stroke-width="0.6"/>
<line x1="336" y1="363.7" x2="1104" y2="363.7" stroke="white" stroke-opacity="0.58" stroke-width="0.6"/>
<line x1="336" y1="411.7" x2="1104" y2="411.7" stroke="white" stroke-opacity="0.58" stroke-width="0.6"/>
<line x1="336" y1="459.7" x2="1104" y2="459.7" stroke="white" stroke-opacity="0.58" stroke-width="0.6"/>
<line x1="336" y1="507.7" x2="1104" y2="507.7" stroke="white" stroke-opacity="0.58" stroke-width="0.6"/>
<line x1="336" y1="555.7" x2="1104" y2="555.7" stroke="white" stroke-opacity="0.58" stroke-width="0.6"/>
<line x1="336" y1="603.7" x2="1104" y2="603.7" stroke="white" stroke-opacity="0.58" stroke-width="0.6"/>
<line x1="336" y1="651.7" x2="1104" y2="651.7" stroke="white" stroke-opacity="0.58" stroke-width="0.6"/>
</g>
<rect x="336.5" y="-115.5" width="767" height="767" stroke="#F1C62B"/>
</g>
</g>
<path d="M720 160L720 184" stroke="url(#paint1_linear_1_2006)"/>
<path d="M732 172L708 172" stroke="url(#paint2_linear_1_2006)"/>
<path d="M576 260L576 276" stroke="url(#paint3_linear_1_2006)"/>
<path d="M588 268L564 268" stroke="url(#paint4_linear_1_2006)"/>
<path d="M961 402L961 420" stroke="url(#paint5_linear_1_2006)"/>
<path d="M970 411L952 411" stroke="url(#paint6_linear_1_2006)"/>
<path d="M912 260L912 276" stroke="url(#paint7_linear_1_2006)"/>
<path d="M920 268L904 268" stroke="url(#paint8_linear_1_2006)"/>
<path d="M529 355L529 373" stroke="url(#paint9_linear_1_2006)"/>
<path d="M538 364L520 364" stroke="url(#paint10_linear_1_2006)"/>
<path d="M913 112L913 136" stroke="url(#paint11_linear_1_2006)"/>
<path d="M925 124L901 124" stroke="url(#paint12_linear_1_2006)"/>
<path d="M816 207L816 231" stroke="url(#paint13_linear_1_2006)"/>
<path d="M828 219L804 219" stroke="url(#paint14_linear_1_2006)"/>
<circle cx="624" cy="220" r="2" fill="white" fill-opacity="0.58"/>
<circle cx="816" cy="124" r="2" fill="white" fill-opacity="0.58"/>
<circle cx="865" cy="316" r="2" fill="white" fill-opacity="0.58"/>
<circle cx="480" cy="268" r="2" fill="white" fill-opacity="0.58"/>
<rect x="864" y="172" width="49" height="48" fill="#F1C62B" fill-opacity="0.24"/>
<rect x="432" y="316" width="49" height="48" fill="#F1C62B" fill-opacity="0.24"/>
<rect x="961" y="316" width="49" height="48" fill="#F1C62B" fill-opacity="0.24"/>
</g>
</g>
<defs>
<radialGradient id="paint0_radial_1_2006" cx="0" cy="0" r="1" gradientUnits="userSpaceOnUse" gradientTransform="translate(384 384) rotate(90) scale(384 384)">
<stop/>
<stop offset="1" stop-opacity="0"/>
</radialGradient>
<linearGradient id="paint1_linear_1_2006" x1="720" y1="184" x2="720" y2="160" gradientUnits="userSpaceOnUse">
<stop stop-color="white" stop-opacity="0"/>
<stop offset="0.50284" stop-color="#F1C62B"/>
<stop offset="1" stop-color="white" stop-opacity="0"/>
</linearGradient>
<linearGradient id="paint2_linear_1_2006" x1="708" y1="172" x2="732" y2="172" gradientUnits="userSpaceOnUse">
<stop stop-color="white" stop-opacity="0"/>
<stop offset="0.50284" stop-color="#F1C62B"/>
<stop offset="1" stop-color="white" stop-opacity="0"/>
</linearGradient>
<linearGradient id="paint3_linear_1_2006" x1="576" y1="276" x2="576" y2="260" gradientUnits="userSpaceOnUse">
<stop stop-color="white" stop-opacity="0"/>
<stop offset="0.50284" stop-color="#F1C62B"/>
<stop offset="1" stop-color="white" stop-opacity="0"/>
</linearGradient>
<linearGradient id="paint4_linear_1_2006" x1="564" y1="268" x2="588" y2="268" gradientUnits="userSpaceOnUse">
<stop stop-color="white" stop-opacity="0"/>
<stop offset="0.50284" stop-color="#F1C62B"/>
<stop offset="1" stop-color="white" stop-opacity="0"/>
</linearGradient>
<linearGradient id="paint5_linear_1_2006" x1="961" y1="420" x2="961" y2="402" gradientUnits="userSpaceOnUse">
<stop stop-color="white" stop-opacity="0"/>
<stop offset="0.50284" stop-color="#F1C62B"/>
<stop offset="1" stop-color="white" stop-opacity="0"/>
</linearGradient>
<linearGradient id="paint6_linear_1_2006" x1="952" y1="411" x2="970" y2="411" gradientUnits="userSpaceOnUse">
<stop stop-color="white" stop-opacity="0"/>
<stop offset="0.50284" stop-color="#F1C62B"/>
<stop offset="1" stop-color="white" stop-opacity="0"/>
</linearGradient>
<linearGradient id="paint7_linear_1_2006" x1="912" y1="276" x2="912" y2="260" gradientUnits="userSpaceOnUse">
<stop stop-color="white" stop-opacity="0"/>
<stop offset="0.50284" stop-color="#F1C62B"/>
<stop offset="1" stop-color="white" stop-opacity="0"/>
</linearGradient>
<linearGradient id="paint8_linear_1_2006" x1="904" y1="268" x2="920" y2="268" gradientUnits="userSpaceOnUse">
<stop stop-color="white" stop-opacity="0"/>
<stop offset="0.50284" stop-color="#F1C62B"/>
<stop offset="1" stop-color="white" stop-opacity="0"/>
</linearGradient>
<linearGradient id="paint9_linear_1_2006" x1="529" y1="373" x2="529" y2="355" gradientUnits="userSpaceOnUse">
<stop stop-color="white" stop-opacity="0"/>
<stop offset="0.50284" stop-color="#F1C62B"/>
<stop offset="1" stop-color="white" stop-opacity="0"/>
</linearGradient>
<linearGradient id="paint10_linear_1_2006" x1="520" y1="364" x2="538" y2="364" gradientUnits="userSpaceOnUse">
<stop stop-color="white" stop-opacity="0"/>
<stop offset="0.50284" stop-color="#F1C62B"/>
<stop offset="1" stop-color="white" stop-opacity="0"/>
</linearGradient>
<linearGradient id="paint11_linear_1_2006" x1="913" y1="136" x2="913" y2="112" gradientUnits="userSpaceOnUse">
<stop stop-color="white" stop-opacity="0"/>
<stop offset="0.50284" stop-color="#F1C62B"/>
<stop offset="1" stop-color="white" stop-opacity="0"/>
</linearGradient>
<linearGradient id="paint12_linear_1_2006" x1="901" y1="124" x2="925" y2="124" gradientUnits="userSpaceOnUse">
<stop stop-color="white" stop-opacity="0"/>
<stop offset="0.50284" stop-color="#F1C62B"/>
<stop offset="1" stop-color="white" stop-opacity="0"/>
</linearGradient>
<linearGradient id="paint13_linear_1_2006" x1="816" y1="231" x2="816" y2="207" gradientUnits="userSpaceOnUse">
<stop stop-color="white" stop-opacity="0"/>
<stop offset="0.50284" stop-color="#F1C62B"/>
<stop offset="1" stop-color="white" stop-opacity="0"/>
</linearGradient>
<linearGradient id="paint14_linear_1_2006" x1="804" y1="219" x2="828" y2="219" gradientUnits="userSpaceOnUse">
<stop stop-color="white" stop-opacity="0"/>
<stop offset="0.50284" stop-color="#F1C62B"/>
<stop offset="1" stop-color="white" stop-opacity="0"/>
</linearGradient>
<clipPath id="clip0_1_2006">
<rect width="768" height="768" fill="white" transform="translate(336 -116)"/>
</clipPath>
<clipPath id="clip1_1_2006">
<rect x="336" y="-116" width="768" height="768" fill="white"/>
</clipPath>
<clipPath id="clip2_1_2006">
<rect x="336" y="-116" width="768" height="768" fill="white"/>
</clipPath>
</defs>
</svg>
