<svg width="21" height="27" viewBox="0 0 21 27" fill="none" xmlns="http://www.w3.org/2000/svg">
<path id="Vector" d="M11.6499 10.5393C11.8424 9.98245 12.6578 9.98245 12.8502 10.5393L13.9789 13.808C14.2273 14.5266 14.6459 15.1794 15.2014 15.7149C15.7569 16.2503 16.4341 16.6536 17.1793 16.8928L20.5669 17.9812C21.1444 18.1669 21.1444 18.9532 20.5669 19.1389L17.1775 20.2273C16.4325 20.4669 15.7555 20.8705 15.2003 21.4063C14.6451 21.942 14.2269 22.5951 13.9789 23.3138L12.8502 26.5808C12.8088 26.7027 12.7284 26.8089 12.6206 26.8842C12.5128 26.9595 12.3831 27 12.2501 27C12.117 27 11.9873 26.9595 11.8795 26.8842C11.7717 26.8089 11.6914 26.7027 11.6499 26.5808L10.5212 23.3121C10.273 22.5937 9.85471 21.941 9.29952 21.4055C8.74432 20.8701 8.06748 20.4667 7.32259 20.2273L3.93321 19.1389C3.80676 19.0988 3.69665 19.0213 3.61859 18.9174C3.54053 18.8135 3.4985 18.6884 3.4985 18.5601C3.4985 18.4317 3.54053 18.3066 3.61859 18.2027C3.69665 18.0988 3.80676 18.0213 3.93321 17.9812L7.32259 16.8928C8.06748 16.6534 8.74432 16.25 9.29952 15.7146C9.85471 15.1791 10.273 14.5264 10.5212 13.808L11.6499 10.5393ZM4.89035 1.93473C4.91544 1.86165 4.96378 1.79806 5.02849 1.75299C5.0932 1.70791 5.17099 1.68365 5.25081 1.68365C5.33064 1.68365 5.40843 1.70791 5.47314 1.75299C5.53785 1.79806 5.58618 1.86165 5.61127 1.93473L6.28845 3.89561C6.59117 4.76974 7.3016 5.45487 8.208 5.74681L10.2413 6.39988C10.3171 6.42407 10.383 6.47069 10.4297 6.53309C10.4765 6.5955 10.5016 6.67052 10.5016 6.7475C10.5016 6.82448 10.4765 6.89951 10.4297 6.96191C10.383 7.02432 10.3171 7.07093 10.2413 7.09513L8.208 7.74819C7.7607 7.89136 7.35424 8.13327 7.02099 8.45465C6.68774 8.77603 6.4369 9.16802 6.28845 9.59939L5.61127 11.5603C5.58618 11.6334 5.53785 11.6969 5.47314 11.742C5.40843 11.7871 5.33064 11.8114 5.25081 11.8114C5.17099 11.8114 5.0932 11.7871 5.02849 11.742C4.96378 11.6969 4.91544 11.6334 4.89035 11.5603L4.21318 9.59939C4.06472 9.16802 3.81389 8.77603 3.48064 8.45465C3.14739 8.13327 2.74093 7.89136 2.29363 7.74819L0.260349 7.09513C0.184573 7.07093 0.118631 7.02432 0.0718934 6.96191C0.0251559 6.89951 0 6.82448 0 6.7475C0 6.67052 0.0251559 6.5955 0.0718934 6.53309C0.118631 6.47069 0.184573 6.42407 0.260349 6.39988L2.29363 5.74681C2.74093 5.60364 3.14739 5.36174 3.48064 5.04035C3.81389 4.71897 4.06472 4.32698 4.21318 3.89561L4.89035 1.93473ZM17.2598 0.164536C17.2771 0.116487 17.3094 0.0748216 17.3524 0.0453336C17.3953 0.0158455 17.4468 0 17.4995 0C17.5522 0 17.6037 0.0158455 17.6466 0.0453336C17.6896 0.0748216 17.722 0.116487 17.7392 0.164536L18.1907 1.47067C18.3919 2.05454 18.8661 2.51186 19.4715 2.70592L20.8259 3.1413C20.8757 3.15796 20.9189 3.18917 20.9495 3.23061C20.9801 3.27204 20.9965 3.32163 20.9965 3.37249C20.9965 3.42334 20.9801 3.47293 20.9495 3.51437C20.9189 3.5558 20.8757 3.58702 20.8259 3.60368L19.4715 4.03905C19.1734 4.13524 18.9026 4.29689 18.6803 4.51124C18.458 4.7256 18.2904 4.98682 18.1907 5.27431L17.7392 6.58044C17.722 6.62849 17.6896 6.67015 17.6466 6.69964C17.6037 6.72913 17.5522 6.74497 17.4995 6.74497C17.4468 6.74497 17.3953 6.72913 17.3524 6.69964C17.3094 6.67015 17.2771 6.62849 17.2598 6.58044L16.8083 5.27431C16.7086 4.98682 16.541 4.7256 16.3187 4.51124C16.0964 4.29689 15.8256 4.13524 15.5275 4.03905L14.1749 3.60368C14.125 3.58702 14.0818 3.5558 14.0513 3.51437C14.0207 3.47293 14.0042 3.42334 14.0042 3.37249C14.0042 3.32163 14.0207 3.27204 14.0513 3.23061C14.0818 3.18917 14.125 3.15796 14.1749 3.1413L15.5292 2.70592C16.1346 2.51186 16.6088 2.05454 16.8101 1.47067L17.2598 0.164536Z" fill="white"/>
</svg>
